<svg xmlns="http://www.w3.org/2000/svg" xmlns:xlink="http://www.w3.org/1999/xlink" width="1920" height="7187" viewBox="0 0 1920 7187">
  <defs>
    <style>
      .cls-1 {
        clip-path: url(#clip-Homepage_Background);
      }

      .cls-2 {
        fill: rgba(22,106,71,0.49);
      }

      .cls-3 {
        fill: rgba(104,226,175,0.49);
      }

      .cls-4 {
        fill: rgba(6,82,50,0.49);
      }

      .cls-5 {
        fill: rgba(55,186,131,0.49);
      }

      .cls-6 {
        fill: rgba(49,181,126,0.49);
      }

      .cls-7 {
        fill: rgba(33,119,83,0.74);
      }

      .cls-8 {
        fill: rgba(32,168,113,0.71);
      }

      .cls-9 {
        fill: rgba(32,168,113,0.49);
      }

      .cls-10 {
        fill: rgba(31,144,98,0.71);
      }

      .cls-11 {
        fill: rgba(27,177,116,0.49);
      }

      .cls-12 {
        fill: rgba(78,150,136,0.38);
      }

      .cls-13 {
        fill: rgba(33,119,83,0.56);
      }

      .cls-14 {
        fill: rgba(33,119,83,0.37);
      }

      .cls-15 {
        fill: #fff;
      }
    </style>
    <clipPath id="clip-Homepage_Background">
      <rect width="1920" height="7187"/>
    </clipPath>
  </defs>
  <g id="Homepage_Background" data-name="Homepage Background" class="cls-1">
    <rect class="cls-15" width="1920" height="7187"/>
    <g id="Leaves_Background" data-name="Leaves Background" transform="translate(0 469)">
      <path id="Path_789" data-name="Path 789" class="cls-2" d="M-1489.787,1866.673s-93.508-70.364-89.325-164.951,59.032-230.616,59.032-230.616,136.306,116.474,156.185,163.149,32.508,90.954,12.287,177.452-36.687,113.114-36.687,113.114Z" transform="translate(327.279 -1107.477) rotate(-82)"/>
      <path id="Path_790" data-name="Path 790" class="cls-3" d="M-1489.787,1866.673s-93.508-70.364-89.325-164.951,59.032-230.616,59.032-230.616,136.306,116.474,156.185,163.149,32.508,90.954,12.287,177.452-36.687,113.114-36.687,113.114Z" transform="translate(-228.569 1303.705) rotate(-144)"/>
      <path id="Path_791" data-name="Path 791" class="cls-4" d="M-1489.787,1866.673s-93.508-70.364-89.325-164.951,59.032-230.616,59.032-230.616,136.306,116.474,156.185,163.149,32.508,90.954,12.287,177.452-36.687,113.114-36.687,113.114Z" transform="translate(1884.638 -37.203) rotate(-23)"/>
      <path id="Path_792" data-name="Path 792" class="cls-5" d="M-1489.787,1866.673s-93.508-70.364-89.325-164.951,59.032-230.616,59.032-230.616,136.306,116.474,156.185,163.149,32.508,90.954,12.287,177.452-36.687,113.114-36.687,113.114Z" transform="matrix(0.53, 0.848, -0.848, 0.53, 3777.668, 2616.983)"/>
      <path id="Path_788" data-name="Path 788" class="cls-6" d="M-1489.787,1866.673s-93.508-70.364-89.325-164.951,59.032-230.616,59.032-230.616,136.306,116.474,156.185,163.149,32.508,90.954,12.287,177.452-36.687,113.114-36.687,113.114Z" transform="matrix(-0.225, -0.974, 0.974, -0.225, -139.185, -323.035)"/>
      <path id="Path_779" data-name="Path 779" class="cls-7" d="M-1374.915,2374.6s-213.575-160.715-204.023-376.754,134.832-526.736,134.832-526.736,311.33,266.03,356.733,372.638,74.25,207.742,28.063,405.308-83.793,258.356-83.793,258.356Z" transform="matrix(0.438, 0.899, -0.899, 0.438, 2600.99, 3040.76)"/>
      <path id="Path_780" data-name="Path 780" class="cls-8" d="M-1287.627,2760.551s-304.811-229.369-291.177-537.7,192.43-751.748,192.43-751.748,444.324,379.673,509.123,531.823,105.968,296.485,40.051,578.448S-956.789,2950.1-956.789,2950.1Z" transform="translate(776.312 1353.572) rotate(-45)"/>
      <path id="Path_793" data-name="Path 793" class="cls-9" d="M-1462.124,1988.989s-122.422-92.122-116.946-215.956,77.286-301.927,77.286-301.927,178.455,152.489,204.48,213.6,42.56,119.078,16.086,232.323-48.031,148.09-48.031,148.09Z" transform="matrix(-0.799, 0.602, -0.602, -0.799, 50.355, 6388.312)"/>
      <path id="Path_794" data-name="Path 794" class="cls-8" d="M-1448.248,2050.345s-136.926-103.036-130.8-241.542,86.443-337.7,86.443-337.7,199.6,170.555,228.706,238.9,47.6,133.186,17.992,259.848-53.721,165.635-53.721,165.635Z" transform="translate(-1340.95 6135.88) rotate(178)"/>
      <path id="Path_795" data-name="Path 795" class="cls-10" d="M-1521.384,1711.417s-60.481-42.747-57.776-100.209,38.182-140.1,38.182-140.1,88.164,70.759,101.021,99.115,21.026,55.255,7.947,107.8-23.729,68.718-23.729,68.718Z" transform="matrix(0.017, -1, 1, 0.017, -1535.645, 2377.318)"/>
      <path id="Path_785" data-name="Path 785" class="cls-11" d="M-1384.825,2330.777s-203.217-152.92-194.127-358.481,128.293-501.189,128.293-501.189,296.23,253.127,339.431,354.565,70.649,197.666,26.7,385.65-79.729,245.825-79.729,245.825Z" transform="translate(2532.391 1030.428) rotate(-16)"/>
      <path id="Path_783" data-name="Path 783" class="cls-12" d="M-1326.48,2588.755s-264.2-198.81-252.383-466.058,166.792-651.591,166.792-651.591,396.943,353.38,453.109,485.258,80.032,232.692,22.9,477.088-103.655,319.595-103.655,319.595Z" transform="matrix(0.848, -0.53, 0.53, 0.848, 1739.355, 3416.233)"/>
      <path id="Path_784" data-name="Path 784" class="cls-13" d="M-1287.627,2760.551s-304.811-229.369-291.177-537.7,192.43-751.748,192.43-751.748,384.521,336.907,480.6,550.4,89.909,500.2,23.992,782.162-84.3,206.861-84.3,206.861Z" transform="matrix(0.454, -0.891, 0.891, 0.454, 106.195, 4190.995)"/>
      <path id="Path_781" data-name="Path 781" class="cls-14" d="M-1235.394,2236.194s-290.241-205.089-281.909-393.526,96.841-339.6,96.841-339.6,193.571,118.754,270.245,293.071-43.439,365.691-85.178,440.059S-1231.324,2238.062-1235.394,2236.194Z" transform="translate(2331.185 1893.888) rotate(43)"/>
    </g>
  </g>
</svg>
