<svg id="Succes" xmlns="http://www.w3.org/2000/svg" width="703.787" height="1012.722" viewBox="0 0 703.787 1012.722">
  <defs>
    <style>
      .cls-1 {
        fill: #18af76;
      }

      .cls-2 {
        fill: #8d631f;
      }

      .cls-3 {
        fill: #003a81;
      }

      .cls-4 {
        fill: #ffdb43;
      }

      .cls-5 {
        fill: #ffb093;
      }

      .cls-6 {
        fill: #f78663;
      }

      .cls-7 {
        fill: #c49f63;
      }

      .cls-8 {
        fill: #fabe5b;
      }

      .cls-9 {
        fill: #62f6ff;
      }
    </style>
  </defs>
  <path id="Path_1" data-name="Path 1" class="cls-1" d="M152.765,286.391l20.088-33.4a3.739,3.739,0,0,0-6.453-3.772l-20.088,33.4a3.739,3.739,0,0,0,6.453,3.772Z" transform="translate(240.27 370.406)"/>
  <path id="Path_2" data-name="Path 2" class="cls-1" d="M234.333,149.064l-23.6,57.783c-1.817,4.449,5.408,6.387,7.2,1.987l23.6-57.786C243.355,146.6,236.129,144.664,234.333,149.064Z" transform="translate(352.734 194.745)"/>
  <path id="Path_3" data-name="Path 3" class="cls-1" d="M145.395,290.414q15.365-30.957,33.3-60.472a3.739,3.739,0,0,0-6.45-3.772q-17.952,29.537-33.306,60.472c-2.133,4.3,4.312,8.084,6.453,3.772Z" transform="translate(227.484 330.33)"/>
  <path id="Path_4" data-name="Path 4" class="cls-1" d="M52.37,293.987l31.108-53.334a3.739,3.739,0,0,0-6.453-3.772L45.917,290.221a3.739,3.739,0,0,0,6.453,3.772Z" transform="translate(65.457 348.931)"/>
  <path id="Path_5" data-name="Path 5" class="cls-1" d="M71.249,224.717l34.43-67.731c2.174-4.276-4.271-8.062-6.453-3.769L64.8,220.945c-2.174,4.276,4.271,8.065,6.453,3.772Z" transform="translate(98.352 203.012)"/>
  <path id="Path_6" data-name="Path 6" class="cls-1" d="M74.991,254.049l33.717-69c2.1-4.307-4.339-8.1-6.453-3.772l-33.717,69C66.436,254.584,72.878,258.375,74.991,254.049Z" transform="translate(104.912 251.841)"/>
  <path id="Path_7" data-name="Path 7" class="cls-1" d="M234.5,171.166l-23.6,57.786c-1.817,4.449,5.409,6.384,7.207,1.985l23.6-57.783C243.521,168.7,236.292,166.766,234.5,171.166Z" transform="translate(353.018 233.232)"/>
  <path id="Path_8" data-name="Path 8" class="cls-2" d="M184.12,182.418a3.185,3.185,0,0,0-3.2-1.223c-17.105,2.294-27.034,11.977-34.844,26.84A379.266,379.266,0,0,0,128.3,244.3a197.467,197.467,0,0,0-11.447,25.4,3.66,3.66,0,0,0-.1,2.489,3.994,3.994,0,0,0,3.958,3.366c15.189.192,25.732-14.389,34.134-25.378q3.17-4.145,5.992-8.473a145.948,145.948,0,0,0,13.479-20.858A123.717,123.717,0,0,0,187.7,187.5a4.112,4.112,0,0,0-3.58-5.082Z" transform="translate(189.285 254.906)"/>
  <path id="Path_9" data-name="Path 9" class="cls-2" d="M125.156,237.874c-.027.044-.049.088-.074.132a4.084,4.084,0,0,0-1.661,1.017C93.994,267.968,72.76,305.909,82.149,348.262a4.164,4.164,0,0,0,6.072,2.467c33.643-21.157,39.134-74.173,44.488-109.672C133.372,236.676,127.738,233.568,125.156,237.874Z" transform="translate(125.422 350.12)"/>
  <path id="Path_10" data-name="Path 10" class="cls-3" d="M73.608,111.014a27.413,27.413,0,0,1,11.977-6.5,26.59,26.59,0,0,1,8.835-.628q0-1.127.019-2.256a31.066,31.066,0,0,1-15.3-3.865A25.091,25.091,0,0,1,69.543,88.1,31.826,31.826,0,0,1,65.189,75.5c-.255-1.247-.485-2.508-.7-3.775-.548.041-1.1.085-1.661.107C61.385,87.7,48.64,102.426,33.021,100.915l-.154.03c-.334.071-.677.11-1.014.164.036.617.077,1.234.115,1.853a31.779,31.779,0,0,1,22.105,11.212,32.465,32.465,0,0,1,7.714,19.307c.444.036.885.041,1.327.049a31.441,31.441,0,0,1,2.922-12.314A26.337,26.337,0,0,1,73.608,111.014Z" transform="translate(41.758 64.41)"/>
  <path id="Path_11" data-name="Path 11" class="cls-4" d="M311.773,206.942a27.453,27.453,0,0,1,11.976-6.5,26.592,26.592,0,0,1,8.835-.63c0-.748,0-1.5.019-2.253a31.108,31.108,0,0,1-15.3-3.868,25.1,25.1,0,0,1-9.594-9.663,31.837,31.837,0,0,1-4.351-12.6c-.258-1.245-.485-2.506-.7-3.775-.548.044-1.1.088-1.659.107-1.447,15.861-14.191,30.59-29.811,29.082a1.33,1.33,0,0,0-.151.027c-.337.071-.68.11-1.017.164l.115,1.853a31.782,31.782,0,0,1,22.105,11.214,32.482,32.482,0,0,1,7.717,19.307c.441.033.883.038,1.324.049a31.429,31.429,0,0,1,2.922-12.314,26.316,26.316,0,0,1,7.572-10.206Z" transform="translate(22.703 566.827)"/>
  <circle id="Ellipse_1" data-name="Ellipse 1" class="cls-3" cx="12.761" cy="12.761" r="12.761" transform="translate(159.477 846.201)"/>
  <path id="Path_12" data-name="Path 12" class="cls-4" d="M62.585,159.2a17.454,17.454,0,0,1,7.626-4.139,16.936,16.936,0,0,1,5.625-.4v-1.436a19.791,19.791,0,0,1-9.742-2.467A16,16,0,0,1,60,144.62a20.286,20.286,0,0,1-2.769-8.018c-.164-.792-.31-1.6-.447-2.4-.351.027-.7.055-1.055.069-.921,10.1-9.046,19.463-18.978,18.514l-.1.016c-.214.047-.43.071-.647.1l.074,1.182a20.233,20.233,0,0,1,14.074,7.127A20.7,20.7,0,0,1,55.063,173.5c.274.022.548.025.842.03a20.069,20.069,0,0,1,1.861-7.84A16.769,16.769,0,0,1,62.585,159.2Z" transform="translate(48.984 173.185)"/>
  <circle id="Ellipse_2" data-name="Ellipse 2" class="cls-3" cx="5.938" cy="5.938" r="5.938" transform="translate(502.138 531.968)"/>
  <circle id="Ellipse_3" data-name="Ellipse 3" class="cls-3" cx="5.938" cy="5.938" r="5.938" transform="translate(133.682 1000.847)"/>
  <circle id="Ellipse_4" data-name="Ellipse 4" class="cls-3" cx="5.938" cy="5.938" r="5.938" transform="translate(199.41 227.182)"/>
  <circle id="Ellipse_5" data-name="Ellipse 5" class="cls-3" cx="11.102" cy="11.102" r="11.102" transform="translate(0 261.434)"/>
  <circle id="Ellipse_6" data-name="Ellipse 6" class="cls-3" cx="5.938" cy="5.938" r="5.938" transform="translate(199.385 90.722)"/>
  <circle id="Ellipse_7" data-name="Ellipse 7" class="cls-3" cx="5.938" cy="5.938" r="5.938" transform="translate(17.544 537.909)"/>
  <circle id="Ellipse_8" data-name="Ellipse 8" class="cls-3" cx="5.938" cy="5.938" r="5.938" transform="translate(104.908 412.554)"/>
  <circle id="Ellipse_9" data-name="Ellipse 9" class="cls-3" cx="5.938" cy="5.938" r="5.938" transform="translate(270.344 612.496)"/>
  <path id="Path_13" data-name="Path 13" class="cls-4" d="M270.011,83.089a11.994,11.994,0,0,1,5.23-2.84,11.659,11.659,0,0,1,3.86-.274v-.984a13.613,13.613,0,0,1-6.683-1.689,11,11,0,0,1-4.189-4.222,13.94,13.94,0,0,1-1.9-5.5c-.112-.548-.211-1.1-.307-1.645-.241.019-.482.038-.724.047-.633,6.93-6.2,13.364-13.021,12.7h-.066c-.148.03-.3.047-.444.071l.049.822a13.9,13.9,0,0,1,9.657,4.9,14.2,14.2,0,0,1,3.369,8.435c.195.014.386.016.578.019a13.752,13.752,0,0,1,1.277-5.378A11.514,11.514,0,0,1,270.011,83.089Z" transform="translate(424.686 54.32)"/>
  <circle id="Ellipse_10" data-name="Ellipse 10" class="cls-3" cx="5.938" cy="5.938" r="5.938" transform="translate(278.705 947.373)"/>
  <circle id="Ellipse_11" data-name="Ellipse 11" class="cls-3" cx="5.938" cy="5.938" r="5.938" transform="translate(657.238 30.806)"/>
  <circle id="Ellipse_12" data-name="Ellipse 12" class="cls-3" cx="5.938" cy="5.938" r="5.938" transform="translate(40.031 38.381)"/>
  <path id="Path_14" data-name="Path 14" class="cls-4" d="M116.814,43.31a11.977,11.977,0,0,1,5.23-2.84,11.659,11.659,0,0,1,3.86-.274v-.984a13.608,13.608,0,0,1-6.683-1.689,11,11,0,0,1-4.189-4.222,13.881,13.881,0,0,1-1.9-5.5q-.167-.822-.307-1.645c-.241.019-.482.038-.724.047-.633,6.93-6.2,13.364-13.024,12.7l-.066.014c-.145.03-.3.047-.444.071.016.274.036.548.052.809a13.893,13.893,0,0,1,9.655,4.9,14.186,14.186,0,0,1,3.372,8.435c.192.014.387.016.578.019a13.747,13.747,0,0,1,1.275-5.378,11.513,11.513,0,0,1,3.314-4.463Z" transform="translate(157.926 -14.946)"/>
  <path id="Path_15" data-name="Path 15" class="cls-3" d="M102.392,41.723c-3.865,4.811-7.379,9.677-10.877,14.8C88.294,61.255,83.338,66.7,82.3,72.382c-.1.581.513,1.247,1.1.844C87.759,70.232,90.254,64.616,93,60.2c3.668-5.872,7.067-11.713,10.2-17.859.249-.488-.419-1.1-.806-.622Z" transform="translate(129.586 11.855)"/>
  <path id="Path_16" data-name="Path 16" class="cls-5" d="M239.185,173.31a122.589,122.589,0,0,1,43.084-27.541,479.968,479.968,0,0,0-23.027-44.307C248.747,87.852,237.505,74.219,223,65.05c-2.9-1.831-5.587,2.166-3.506,4.542l4.112,4.7c-2.9-2.16-5.833-4.222-8.8-6.113a3.056,3.056,0,0,0-1.39-.466c-3.174-1.645-5.757,2.686-3.624,5.288l3.27,3.978a58.279,58.279,0,0,0-8.152-4.57,3.882,3.882,0,0,0-3.917,6.7c.565.359,1.08.768,1.628,1.143a2.694,2.694,0,0,0,.411.639A50.113,50.113,0,0,1,216.3,106.613a49.69,49.69,0,0,0-5.337-10.559,3.838,3.838,0,0,0-6.711.6,2.5,2.5,0,0,0-.91,2.193c.809,9.641-.025,22.423,7.38,29.455,6.472,6.146,12.681,10.228,17.459,18.21S239.032,173.042,239.185,173.31Z" transform="translate(333.068 51.969)"/>
  <path id="Path_17" data-name="Path 17" class="cls-5" d="M266.6,47.683a3.79,3.79,0,0,0-.26-1.839,2.741,2.741,0,0,0-2.516-2.374,4.965,4.965,0,0,0-2.634-.274,5.041,5.041,0,0,0-2.234-7.744c-7.845-2.865-15.727-5.625-23.663-8.224-6-1.968-13.375-5.51-19.795-5.134a4.66,4.66,0,0,0-4.411,3.358,1.04,1.04,0,0,1-.052.222,3.161,3.161,0,0,0-1.173,1.217C195,53.928,179.3,80.427,163.669,107.023c5.907,1.445,51.859,20.524,55.31,21.79a218.4,218.4,0,0,0,21.382-38.361,85.545,85.545,0,0,1,19.5-15.181,4.824,4.824,0,0,0,1.549-1.3,4.509,4.509,0,0,0,3.391-4.66,78.9,78.9,0,0,1,1.817-19.438,4.723,4.723,0,0,0-.019-2.185Z" transform="translate(271.283 -22.066)"/>
  <path id="Path_18" data-name="Path 18" class="cls-6" d="M187.155,40.86c1.217-2.714,2.563-5.362,3.906-8.013a32.867,32.867,0,0,0,3.687-7.527,2.119,2.119,0,0,0-3.512-2.045,22.48,22.48,0,0,0-4.767,7.533,73.44,73.44,0,0,0-3.413,8.322c-.842,2.366,3.054,4.054,4.112,1.73Z" transform="translate(304.837 -20.964)"/>
  <path id="Path_19" data-name="Path 19" class="cls-6" d="M193.371,43.9c3.048-5.165,5.271-10.653,8.627-15.688,1.532-2.3-2.226-4.507-3.709-2.168A59.756,59.756,0,0,0,190.1,42.522a1.8,1.8,0,0,0,3.273,1.371Z" transform="translate(317.218 -16.871)"/>
  <path id="Path_20" data-name="Path 20" class="cls-6" d="M195.789,57.978a139.636,139.636,0,0,0,16.151-26.955c1.332-3.29-3.8-5.14-5.548-2.338-5.436,8.7-8.991,18.476-13.1,27.832a1.45,1.45,0,0,0,2.5,1.461Z" transform="translate(322.582 -12.928)"/>
  <path id="Path_21" data-name="Path 21" class="cls-6" d="M205.446,72.248c2.741,2.612,5.524,5.173,8.177,7.862a100.269,100.269,0,0,0,7.772,8.276,1.6,1.6,0,0,0,2.492-1.919,42.075,42.075,0,0,0-7.84-8.772,80.214,80.214,0,0,0-8.937-7.6c-1.275-.921-2.774,1.1-1.664,2.155Z" transform="translate(343.353 61.164)"/>
  <path id="Path_22" data-name="Path 22" class="cls-6" d="M208.968,70.092c2.563,2.826,5.063,5.718,7.385,8.745a29.811,29.811,0,0,0,6.055,7.453,2.029,2.029,0,0,0,2.95-2.27,23.783,23.783,0,0,0-6.609-7.7q-4.079-3.939-8.394-7.612a.981.981,0,0,0-1.387,1.387Z" transform="translate(349.7 58.684)"/>
  <path id="Path_23" data-name="Path 23" class="cls-7" d="M381.967,202.1c-8.841-24.1-33.416-22.933-55.014-22.506l-62.106,1.228-17.2-1.467c.123-.3-47.761-14.8-70.371-25.376-3.339-1.184-6.661-2.421-9.981-3.682-15.8,37.577-30.428,75.631-43.567,114.225q-10.938,32.114-20.592,64.647c-5.4,18.224-13.185,37.692-14.943,56.678-2.785,30.124,30,32.262,44.932,11.853a77.993,77.993,0,0,0,9.847-18.868,235.42,235.42,0,0,0,12.336-24.5q28.235-51.774,55.236-104.192c7.53-1.308,15.047-2.686,22.563-4.052-12.031,12.412-19.074,32.766-2.045,42.994a24.792,24.792,0,0,0,9.364,3.2,4.359,4.359,0,0,0,2.626.439c.274-.038.548-.088.839-.126l.343.022a3.6,3.6,0,0,0,2.193.375l1.121-.14a91.364,91.364,0,0,0,16.173-1.069,247.34,247.34,0,0,0,30.743-4.907c6.828-1.393,13.739-2.807,20.609-4.411,18.775-2.78,38.358-7.127,52.618-20.129C383.522,247.94,389.322,222.155,381.967,202.1Z" transform="translate(139.578 201.215)"/>
  <path id="Path_24" data-name="Path 24" class="cls-8" d="M225.226,189.914c-1.842-1.743-3.794-3.353-5.787-4.912l3-3.564a14.092,14.092,0,0,0,3.649-5.126,1.8,1.8,0,0,0-2.607-2c-1.807.9-2.939,3.161-4.112,4.759q-1.678,2.272-3.35,4.551a2.8,2.8,0,0,0-.907.548,695.173,695.173,0,0,0-70.308,17.27,1.4,1.4,0,0,0,.743,2.7c23.3-4.474,46.36-10.343,69.45-15.781a78.718,78.718,0,0,1,6.214,5.57c1.848,1.856,3.523,4.762,6.124,5.483,1.387.384,3.342-.751,3.133-2.388C230.069,194,227.358,191.937,225.226,189.914Z" transform="translate(236.766 242.645)"/>
  <path id="Path_25" data-name="Path 25" class="cls-8" d="M155.618,162.968c-2.892,10.707-5.757,21.415-8.473,32.16a19.463,19.463,0,0,1-7.245-1.579c-3.172-2.593-.57-7.654.222-10.9a207.4,207.4,0,0,1,6.683-21.969c1.069-2.933-3.44-4.016-4.594-1.266a197.15,197.15,0,0,0-6.938,18.915c-1.415,4.644-3.89,10.507-3.7,15.351.247,6.483,9.663,7.253,15.444,7.284a2.234,2.234,0,0,0,3.41-.622,2.651,2.651,0,0,0,.8-2.689c2.933-11.162,5.707-22.355,8.451-33.564a2.105,2.105,0,0,0-4.054-1.116Z" transform="translate(215.372 214.322)"/>
  <path id="Path_26" data-name="Path 26" class="cls-8" d="M113.978,181.82c15.389-3.679,29.841-10.647,38.449-24.474,1.371-2.193-2.116-4.232-3.468-2.029-7.887,12.865-21.724,19.545-35.8,23.531a1.543,1.543,0,0,0,.822,2.972Z" transform="translate(181.48 208.307)"/>
  <path id="Path_27" data-name="Path 27" class="cls-1" d="M350.576,153.5a22.662,22.662,0,0,0,.365-4.981,2.267,2.267,0,0,0-.483-1.3c.165-4.986-3.289-10.143-5.8-14.309-2.963-4.915-5.8-11.664-9.827-16.447-2.467-4.627-4.934-9.241-7.3-13.863-2.094-4.071-8.172-.485-6.129,3.586,4.367,8.7,8.646,17.454,13.111,26.1,2.505,4.855,5.7,9.567,7.9,14.529a71.986,71.986,0,0,1-2.719,13.556c-14.3,18.3-44.751,29.531-63.567,37.158-23.049,9.337-46.859,16.327-70.513,23.906a1.919,1.919,0,0,0-1.02,2.9q-11.62,20.173-23.068,40.436a2.056,2.056,0,0,0,3.547,2.072q12.5-20.535,24.712-41.237a2.377,2.377,0,0,0,.326-1.371c29.773-7.555,59.6-16.157,87.534-29.057,15.269-7.042,44.787-18.953,51.785-37.577A8.2,8.2,0,0,0,350.576,153.5Z" transform="translate(301.955 115.041)"/>
  <path id="Path_28" data-name="Path 28" class="cls-9" d="M235.006,102.8l-.134-.652a.8.8,0,0,0-1.532,0l-.134.652a.924.924,0,1,0,1.8,0Z" transform="translate(392.322 116.379)"/>
  <path id="Path_29" data-name="Path 29" class="cls-5" d="M237.036,71.965a4.116,4.116,0,0,0-.548-.639c-10.776,5.839-22.023,10.762-32.9,16.448-10.365,5.436-21.42,10.115-30.935,17-4.079,5.107-6.812,11.3-3.237,16.793a11.055,11.055,0,0,0,13.158,4.364c-.932,1.327-1.834,2.637-2.675,3.857a120.92,120.92,0,0,0-12.81,24.688c-.578,1.478.548,7.4,2.015,4.32a139.444,139.444,0,0,1,13.651-22.859c2.135-2.906,4.515-5.625,6.894-8.344C199.772,145.7,215.808,155,238.936,141.916c.406-.228.806-.466,1.209-.7-4.224,6.658-8.281,13.432-12.042,20.357-5.713,10.54-13.051,22.064-14.964,33.992-.2,1.266,1.469,2.78,2.5,1.453,7.426-9.594,11.469-22.012,17.1-32.744q8.155-15.535,17.306-30.458a22.125,22.125,0,0,0,7.1-16.664C256.729,101.913,244.8,84.259,237.036,71.965Z" transform="translate(276.976 63.708)"/>
  <path id="Path_30" data-name="Path 30" class="cls-1" d="M214.1,133.2a195.95,195.95,0,0,1,29.811-22.563c9.679-5.935,20.285-10.008,30.006-15.71a1.08,1.08,0,0,0-.822-1.963c-23.139,4.641-45.074,21.511-61.829,37.393C209.371,132.145,212.181,134.938,214.1,133.2Z" transform="translate(353.066 101.339)"/>
  <path id="Path_31" data-name="Path 31" class="cls-1" d="M361.151,95.59c-11.823.981-23.194,9.074-33.09,15.2-9.49,5.875-22.824,12.314-28.687,22.04a.71.71,0,0,0,.792,1.031,28.239,28.239,0,0,0,4.608-1.412,2.784,2.784,0,0,0,.107,2.138c.567,1.245,1.1,2.5,1.546,3.788a19.288,19.288,0,0,0,.987,2.58c-25.327,3.372-50.351,10.417-75.705,14.529a2.6,2.6,0,0,0-.806-1.878,561.907,561.907,0,0,1-47.815-53.249,2.766,2.766,0,0,0-.971-.8,2.6,2.6,0,0,0-4.161.787q-8.577,17.432-16.294,35.253a2.985,2.985,0,0,0-.093,2.141,2.76,2.76,0,0,0,3.542,3.235,114.8,114.8,0,0,1,29.7-5.784q1.11,18.249,2.223,36.5a2.9,2.9,0,0,0,.167,2.656,3.035,3.035,0,0,0,5.337,1.689c.041-.03.082-.049.123-.085l1.79-1.519a2.685,2.685,0,0,0,1.2-.45c6.579-4.386,13.336-8.46,20.239-12.3,27.84-2.363,59.129-4.907,85.1-15.625a2.741,2.741,0,0,0,.822-.548c2.467,1.582,4.948,3.114,7.508,4.526,2.442,1.346,5.6,3.95,8.454,2.9a1.6,1.6,0,0,0,1.1-1.952c-1.171-2.955-4.6-3.522-7.292-4.833-3.095-1.5-6.11-3.158-9.076-4.9a2,2,0,0,0,.088-.236c.595-2.969-1.7-6.579-3.037-9.178a2.467,2.467,0,0,0-1.061-1.075c7.878-4.049,15.409-10.691,22.478-14.981,10.08-6.121,22.267-9.973,31.39-17.245a1.746,1.746,0,0,0-1.209-2.936Z" transform="translate(267.356 105.958)"/>
  <path id="Path_32" data-name="Path 32" class="cls-1" d="M230.171,79.527c-7.972-7.881-20.285-11.645-30.636-15.685A239.318,239.318,0,0,0,175.368,54.8a91.554,91.554,0,0,0-12.728-3.632c-.62-.3-1.242-.592-1.864-.894a2.429,2.429,0,0,0-3.353,2.95,1.971,1.971,0,0,0,1.606,1.793c.535.123,1.1.274,1.631.4a51.811,51.811,0,0,0,10.65,3.967c7.95,3.435,16.829,5.611,24.575,8.662,10.965,4.315,22.174,11.086,33.956,12.284C230.256,80.369,230.44,79.793,230.171,79.527Z" transform="translate(260.198 26.633)"/>
  <path id="Path_33" data-name="Path 33" class="cls-1" d="M159.326,53.086c-3.12-1-4.361,3.78-1.34,4.863,24.3,8.717,47.583,20.285,72.051,28.438.274.09.376-.274.181-.428C209.4,70.282,183.954,60.937,159.326,53.086Z" transform="translate(258.372 31.712)"/>
  <path id="Path_34" data-name="Path 34" class="cls-1" d="M232.175,57.918C189.787,140.126,146.357,223.992,114.575,311a2.711,2.711,0,0,0,2.84,3.429,171.571,171.571,0,0,0,20.428,8.44c25.768,12.264,55.373,23.827,81.9,23.46a.378.378,0,0,0,.189-.7c-14.148-8.772-30.754-12.832-46.327-18.366-17.27-6.127-34.252-13.032-51.434-19.4C162.427,226.53,198.151,143.095,239.678,62.3,242.227,57.34,234.741,52.94,232.175,57.918Z" transform="translate(185.625 36.551)"/>
  <path id="Path_35" data-name="Path 35" class="cls-3" d="M195.473,93.5a107.307,107.307,0,0,0,4.934-9.551,26.607,26.607,0,0,0,3.328-8.8,2.193,2.193,0,0,0-3.684-1.527,30.927,30.927,0,0,0-4.364,8.3c-1.442,3.073-2.906,6.108-4.235,9.233-1.14,2.673,2.442,5,4.016,2.347Z" transform="translate(319.277 66.683)"/>
  <path id="Path_36" data-name="Path 36" class="cls-3" d="M178.359,89.628c5.9-.047,14.011.11,19.353-2.692,1.834-.959.792-3.449-.976-3.6a48.542,48.542,0,0,0-9.142,1.006c-3.073.329-6.149.595-9.235.748a2.273,2.273,0,0,0,0,4.54Z" transform="translate(293.099 84.617)"/>
  <path id="Path_37" data-name="Path 37" class="cls-3" d="M194.625,83.2a3.248,3.248,0,0,0,2.283,1.708,2.174,2.174,0,0,0,2.7-2.053,3.271,3.271,0,0,0-1.064-2.675c-1.82-2.141-5.521.683-3.917,3.015Z" transform="translate(324.5 77.793)"/>
  <path id="Path_38" data-name="Path 38" class="cls-3" d="M183.076,89.721a3.254,3.254,0,0,0,2.283,1.708,2.174,2.174,0,0,0,2.7-2.053,3.262,3.262,0,0,0-1.064-2.675c-1.82-2.141-5.518.683-3.917,3.015Z" transform="translate(304.393 89.155)"/>
  <path id="Path_39" data-name="Path 39" class="cls-6" d="M184.271,93.164a18.281,18.281,0,0,0,20.743,2.725c2.229-1.165.274-4.276-1.933-3.306a16,16,0,0,1-16.365-1.864C185.011,89.392,182.571,91.651,184.271,93.164Z" transform="translate(306.154 96.777)"/>
  <path id="Path_40" data-name="Path 40" class="cls-6" d="M205.707,90.078a58.272,58.272,0,0,0-4.981-8.742,2.939,2.939,0,0,0-3.964-.855,3.647,3.647,0,0,0-.5.09c-4.594,1.288-12.437,3.783-10.833,8.873,1.467,4.66,4.63,10.828,9.937,13.1,4.627,1.979,11.327.595,12.464-4.161a13.641,13.641,0,0,0-2.127-8.306Z" transform="translate(308.81 78.896)"/>
  <path id="Path_41" data-name="Path 41" class="cls-3" d="M30.883,208.783a120.035,120.035,0,0,1-8.037,12.371,64.342,64.342,0,0,0-7.459,11.069,1.047,1.047,0,0,0,1.524,1.17c7.637-5.277,10.8-16.321,14.312-24.414C31.322,208.756,31,208.553,30.883,208.783Z" transform="translate(13.032 302.88)"/>
  <path id="Path_42" data-name="Path 42" class="cls-3" d="M252.655,189.658c-9.241,13.821-18.676,28.26-24.493,43.92-1.346,3.621,4.759,6.25,6.3,2.656,6.579-15.318,11.787-30.976,19.307-45.924a.645.645,0,0,0-1.113-.652Z" transform="translate(-50.514 604.581)"/>
  <path id="Path_43" data-name="Path 43" class="cls-3" d="M282.313,233.774c-4.438,7.725-8.5,15.984-13.577,23.3-1.919,2.771,3.322,5.441,4.455,1.878,2.678-8.416,6.746-16.59,10.143-24.74.247-.595-.715-.97-1.025-.433Z" transform="translate(19.742 681.513)"/>
  <path id="Path_44" data-name="Path 44" class="cls-4" d="M55.221,162.1c8.043-14.841,18.5-28.271,26.135-43.273a2.316,2.316,0,0,0-3.624-2.793c-12.385,11.738-20.516,27.687-28.2,42.739C47.611,162.529,53.187,165.846,55.221,162.1Z" transform="translate(71.85 140.446)"/>
  <path id="Path_45" data-name="Path 45" class="cls-4" d="M295.116,208.37c7.157-16.93,16.286-35.4,17.906-53.923a1.33,1.33,0,0,0-2.248-.932c-11.787,13.632-18.687,32.643-25.617,49.033-2.856,6.757,7.075,12.643,9.959,5.822Z" transform="translate(48.175 541.561)"/>
  <path id="Path_46" data-name="Path 46" class="cls-4" d="M195.717,279.475a17.586,17.586,0,0,1,7.676-4.137,17.062,17.062,0,0,1,5.658-.4c0-.477,0-.957,0-1.436a19.983,19.983,0,0,1-9.8-2.467,16.028,16.028,0,0,1-6.138-6.152,20.172,20.172,0,0,1-2.785-8.018c-.165-.792-.31-1.6-.45-2.4-.354.027-.707.055-1.061.068-.929,10.1-9.09,19.477-19.09,18.517l-.1.019c-.214.044-.433.069-.65.1l.074,1.179a20.4,20.4,0,0,1,14.153,7.127,20.623,20.623,0,0,1,4.934,12.292c.274.022.565.025.847.03a19.926,19.926,0,0,1,1.872-7.837A16.764,16.764,0,0,1,195.717,279.475Z" transform="translate(280.534 382.588)"/>
  <path id="Path_47" data-name="Path 47" class="cls-4" d="M185.232,281.076c6.258-12.643,15.729-26.45,17.785-40.488.153-1.05-1.05-2.034-1.919-1.121-9.811,10.17-14.863,25.976-20.982,38.616-1.645,3.416,3.424,6.425,5.123,2.993Z" transform="translate(299.359 355.855)"/>
  <path id="Path_48" data-name="Path 48" class="cls-3" d="M277.908,76.926a2.571,2.571,0,0,0-1.371-1.826,3.063,3.063,0,0,0-1.1-.79c-23.432-9.715-48.63-8.588-72.734-1.919-10.951,3.035-25.768,6.828-38.315,12.952a75.707,75.707,0,0,0-10.206,5.1,56.491,56.491,0,0,0-5.044,3.27c-2.782,1.9-6.656,5.324-6.053,8.514a2.448,2.448,0,0,0,1.209,3.015,4.816,4.816,0,0,0,2.177,1.031,9.241,9.241,0,0,0,5.378-.488A88.507,88.507,0,0,0,169.6,100.92l10.033-3.147a73.992,73.992,0,0,0-21.878,15.277,2.994,2.994,0,0,0,0,4.142c4.866,4.953,13.158.578,18.471-1.645a114.405,114.405,0,0,0,14.507-7.541c-1,.99-1.985,2.007-2.939,3.095a2.972,2.972,0,0,0,.592,4.6c5.7,3.418,11.127.965,16.82-1.447q15.307-6.489,30.211-13.89c.107-.052.156-.137.252-.2l34.951-14.751a2.908,2.908,0,0,0,.822-.513C275.085,83.453,278.848,80.975,277.908,76.926Z" transform="translate(235.2 56.53)"/>
  <path id="Path_49" data-name="Path 49" class="cls-8" d="M303.084,107.682a2.262,2.262,0,0,0-.291-.1c-15.611-2.209-31.464,3.24-47.47,1.946-17.615-1.428-34.951-5.381-52.657-5.891a152.937,152.937,0,0,0-82.238,21.834,104.938,104.938,0,0,1-16.873,28.805,56.848,56.848,0,0,1,32.758,2.911c.532.214,1.047.452,1.552.707,29.227-20.093,64.214-20.524,99.2-12.415,27.8,6.442,64.779-.088,69.551-34.131a3.29,3.29,0,0,0-3.533-3.662Z" transform="translate(166.611 119.897)"/>
</svg>
